<?xml version="1.0" standalone="no"?>
<!DOCTYPE svg PUBLIC "-//W3C//DTD SVG 20010904//EN"
 "http://www.w3.org/TR/2001/REC-SVG-20010904/DTD/svg10.dtd">
<svg version="1.0" xmlns="http://www.w3.org/2000/svg"
 width="700.000000pt" height="700.000000pt" viewBox="0 0 700.000000 700.000000"
 preserveAspectRatio="xMidYMid meet">
<metadata>
Created by potrace 1.14, written by Peter Selinger 2001-2017
</metadata>
<g transform="translate(0.000000,700.000000) scale(0.100000,-0.100000)"
fill="#000000" stroke="none">
<path d="M3278 6995 c-1 -1 -42 -5 -89 -9 -47 -4 -95 -8 -105 -10 -10 -2 -41
-7 -69 -10 -428 -56 -875 -210 -1270 -439 -103 -60 -265 -165 -315 -204 -8 -6
-51 -40 -95 -74 -353 -275 -673 -651 -897 -1054 -49 -87 -148 -289 -148 -301
0 -2 -9 -23 -20 -47 -57 -123 -157 -435 -186 -582 -2 -11 -10 -54 -19 -95 -29
-147 -36 -200 -52 -370 -15 -164 -8 -592 12 -711 2 -13 6 -46 9 -74 9 -78 22
-152 51 -285 21 -96 91 -339 114 -395 5 -11 25 -65 46 -120 63 -166 249 -531
312 -610 4 -6 34 -49 65 -95 170 -255 433 -535 708 -755 92 -74 370 -265 386
-265 4 0 15 -6 23 -14 26 -22 298 -158 411 -205 267 -111 589 -200 859 -237
25 -3 57 -8 71 -10 163 -25 682 -25 842 1 13 2 46 7 73 10 71 10 87 13 115 18
14 3 43 8 65 12 22 4 76 16 120 27 44 10 87 21 96 23 25 5 157 45 219 65 178
57 568 235 660 300 15 11 33 20 39 20 6 0 11 5 11 10 0 6 5 10 10 10 15 0 220
141 330 227 152 118 324 280 450 422 36 41 70 79 76 85 6 6 48 61 94 121 150
197 277 405 383 628 26 53 47 99 47 102 0 2 11 28 24 57 57 127 151 421 182
573 17 81 54 301 59 350 4 33 9 71 11 85 9 47 11 525 3 605 -15 165 -21 220
-24 225 -2 3 -6 30 -10 60 -9 75 -69 337 -99 435 -174 571 -466 1062 -881
1478 -384 385 -846 672 -1360 845 -168 57 -420 119 -555 137 -19 3 -46 7 -60
10 -13 2 -52 7 -86 11 -33 3 -74 8 -90 10 -32 5 -540 14 -546 9z m802 -1055
c25 -6 54 -12 65 -14 141 -28 328 -148 441 -284 66 -80 136 -217 165 -327 32
-115 31 -308 0 -420 -111 -393 -456 -650 -851 -632 -58 3 -116 7 -130 11 -14
3 -36 8 -49 11 -40 7 -164 57 -203 82 -21 12 -42 23 -48 23 -5 0 -10 4 -10 8
0 4 -14 16 -31 26 -55 32 -163 149 -213 229 -94 151 -137 315 -130 495 12 294
200 586 459 712 72 35 165 71 165 65 0 -2 12 0 26 5 14 6 55 13 92 16 37 4 68
7 69 8 6 5 145 -6 183 -14z m-2035 -1175 c68 -11 187 -54 255 -92 183 -100
327 -270 394 -465 141 -413 -54 -870 -449 -1049 -169 -76 -380 -95 -560 -49
-319 81 -562 340 -625 670 -11 57 -15 236 -6 267 2 10 7 35 10 56 21 138 129
333 248 442 111 104 273 190 393 211 17 3 46 8 65 13 40 9 216 7 275 -4z
m3267 -874 c87 -23 257 -100 288 -131 3 -3 31 -26 62 -53 83 -69 156 -166 209
-275 56 -116 81 -230 81 -362 -3 -396 -256 -721 -639 -821 -365 -94 -758 75
-946 408 -136 241 -143 537 -17 788 52 103 73 134 150 215 109 113 291 215
425 237 17 3 48 8 70 12 69 13 235 3 317 -18z m-2072 -1166 c246 -46 484 -233
593 -465 60 -127 80 -222 80 -375 1 -414 -310 -770 -723 -830 -161 -24 -366
10 -505 83 -212 112 -361 294 -431 529 -37 122 -39 318 -5 437 69 246 221 435
437 544 72 37 165 69 236 81 55 10 258 7 318 -4z"/>
</g>
</svg>
